ply
format ascii 1.0
comment VCGLIB generated
element vertex 8
property float x
property float y
property float z
property float nx
property float ny
property float nz
property uchar red
property uchar green
property uchar blue
property uchar alpha
element face 12
property list uchar int vertex_indices
end_header
0.0 0.0 0.0 -1.0 -1.0 -1.0 255 255 255 255 
0.0 0.0 1.0 -1.0 -1.0 1.0 255 255 0 255 
0.0 1.0 0.0 -1.0 1.0 -1.0 255 0 255 255 
0.0 1.0 1.0 -1.0 1.0 1.0 255 0 0 255 
1.0 0.0 0.0 1.0 -1.0 -1.0 0 255 255 255 
1.0 0.0 1.0 1.0 -1.0 1.0 0 255 0 255 
1.0 1.0 0.0 1.0 1.0 -1.0 0 0 255 255 
1.0 1.0 1.0 1.0 1.0 1.0 0 0 0 255 
3 0 1 2 
3 1 0 4 
3 0 2 4
3 5 6 7 
3 7 6 3 
3 3 5 7 
3 2 1 3 
3 2 3 6 
3 4 2 6 
3 6 5 4 
3 1 4 5 
3 5 3 1 
